<?xml version="1.0" standalone="no"?>
<!DOCTYPE svg PUBLIC "-//W3C//DTD SVG 20010904//EN"
 "http://www.w3.org/TR/2001/REC-SVG-20010904/DTD/svg10.dtd">
<svg version="1.0" xmlns="http://www.w3.org/2000/svg"
 width="781.000000pt" height="781.000000pt" viewBox="0 0 781.000000 781.000000"
 preserveAspectRatio="xMidYMid meet">
<metadata>
Created by potrace 1.11, written by Peter Selinger 2001-2013
</metadata>
<g transform="translate(0.000000,781.000000) scale(0.100000,-0.100000)"
fill="#000000" stroke="none">
<path d="M3715 7679 c2 -3 -12 -21 -32 -40 -20 -19 -32 -28 -28 -20 5 9 4 12
-3 7 -7 -4 -12 -13 -12 -19 0 -19 -155 -169 -165 -160 -4 4 -5 3 -2 -3 8 -14
-36 -57 -48 -47 -4 5 -5 3 -2 -3 3 -6 -11 -28 -32 -48 -21 -21 -41 -34 -43
-29 -3 4 -4 3 -2 -3 1 -6 -15 -29 -37 -50 -21 -21 -39 -34 -39 -30 0 5 -7 3
-15 -4 -8 -7 -13 -16 -10 -20 7 -11 -50 -61 -60 -53 -4 5 -5 3 -2 -3 3 -6 -11
-28 -32 -48 -28 -27 -40 -34 -45 -24 -3 7 -4 4 -3 -7 1 -13 -3 -19 -13 -17 -8
2 -12 0 -7 -4 10 -11 -64 -85 -77 -77 -6 3 -8 3 -4 -2 12 -13 -11 -34 -30 -28
-12 3 -13 2 -4 -4 9 -7 6 -15 -15 -34 -20 -18 -23 -19 -13 -4 14 18 14 19 -2
6 -10 -7 -16 -17 -13 -21 7 -11 -20 -31 -29 -22 -4 4 -6 0 -4 -8 2 -8 -3 -14
-9 -15 -7 0 -12 -3 -10 -7 4 -12 -46 -58 -56 -51 -6 3 -7 1 -4 -4 7 -12 -16
-36 -26 -28 -4 3 -5 2 -2 -2 7 -9 -45 -63 -61 -63 -7 0 -16 -5 -20 -12 -5 -7
-3 -8 7 -3 8 5 6 -1 -5 -13 -10 -12 -23 -19 -29 -15 -5 3 -7 1 -4 -4 6 -10
-30 -51 -39 -45 -2 1 -3 0 -1 -3 5 -10 -267 -274 -276 -268 -6 3 -7 2 -4 -4 6
-9 -144 -167 -154 -161 -2 2 -3 1 -1 -1 6 -10 -232 -239 -242 -234 -6 3 -7 2
-3 -2 10 -11 -444 -466 -456 -458 -6 3 -7 2 -4 -4 7 -11 -46 -66 -56 -58 -4 3
-5 2 -2 -2 9 -11 -156 -172 -171 -166 -7 2 -10 11 -7 19 3 9 12 13 21 9 12 -4
13 -3 2 10 -10 12 -10 15 4 15 10 0 15 4 11 10 -7 11 54 122 64 115 4 -2 7 6
7 18 -1 13 4 21 12 19 8 -1 11 2 7 8 -9 14 14 52 27 44 7 -4 8 -3 4 4 -7 12
99 211 134 252 11 12 17 26 15 31 -3 4 0 11 6 15 8 5 9 3 4 -6 -6 -9 -4 -11 4
-6 7 5 10 14 7 22 -3 7 3 21 12 30 9 10 16 20 14 23 -5 10 90 161 101 161 6 0
8 3 4 6 -9 9 21 64 35 64 6 0 9 3 6 6 -4 3 32 74 80 157 47 84 106 189 132
235 26 45 50 79 55 75 4 -5 5 -2 1 4 -8 15 17 56 28 46 4 -4 4 0 0 10 -3 10
-1 17 5 17 6 0 11 7 11 15 0 8 5 15 11 15 5 0 8 4 4 10 -3 5 3 18 15 30 11 11
17 20 14 20 -3 0 6 20 21 45 22 38 24 46 11 51 -9 3 -13 11 -9 18 3 6 3 8 -2
4 -12 -11 -47 11 -39 24 5 7 2 9 -8 6 -8 -4 -20 2 -27 13 -6 11 -16 17 -21 14
-12 -8 -71 26 -64 36 2 4 -1 11 -7 15 -8 5 -9 3 -4 -6 5 -8 3 -11 -6 -8 -8 3
-13 11 -11 17 1 7 -2 10 -8 6 -12 -7 -122 53 -116 63 2 4 -7 8 -20 8 -27 2
-40 -15 -109 -141 -56 -102 -91 -156 -96 -150 -3 3 -5 -5 -5 -18 1 -13 -4 -21
-12 -19 -8 1 -11 -2 -7 -8 4 -6 -15 -45 -41 -88 -25 -42 -56 -94 -67 -114 -11
-20 -24 -35 -28 -32 -4 2 -7 -4 -7 -13 1 -20 -39 -93 -51 -93 -4 0 -8 -6 -8
-13 0 -25 -64 -127 -75 -121 -7 4 -8 2 -4 -4 7 -12 -29 -92 -48 -104 -6 -4
-11 -11 -12 -15 -2 -20 -17 -42 -24 -38 -5 3 -12 0 -16 -6 -4 -8 -3 -9 4 -5
14 8 16 -6 3 -19 -4 -6 -24 -39 -43 -75 -101 -186 -112 -203 -123 -192 -5 4
-5 1 -1 -5 9 -16 -24 -74 -37 -66 -6 3 -7 1 -3 -5 9 -15 -18 -55 -29 -44 -5 4
-5 1 -1 -5 8 -15 -34 -93 -51 -93 -6 0 -15 -4 -18 -10 -3 -6 1 -7 9 -4 12 5
10 -4 -7 -34 -12 -22 -26 -38 -31 -35 -5 4 -6 1 -2 -5 11 -18 -4 -37 -16 -21
-7 10 -8 9 -4 -6 3 -11 1 -27 -4 -35 -7 -10 -10 23 -10 103 l0 117 -205 0
-205 0 0 -476 c0 -357 -3 -473 -12 -468 -6 4 -8 3 -5 -3 9 -15 -196 -436 -207
-426 -5 4 -6 3 -3 -3 6 -10 -135 -302 -151 -314 -19 -14 -7 -53 58 -180 39
-77 66 -140 60 -140 -6 0 -8 -5 -5 -10 4 -6 10 -8 14 -6 8 5 78 -132 73 -142
-2 -2 1 -8 6 -11 5 -3 45 -76 88 -161 l79 -155 5 -480 5 -480 202 -3 203 -2 0
117 c1 107 2 116 16 98 8 -11 12 -26 9 -34 -3 -9 -3 -12 1 -8 11 10 57 -71 57
-100 0 -15 2 -20 7 -13 5 9 9 9 14 1 4 -6 4 -16 0 -23 -5 -7 -3 -8 6 -3 10 6
12 4 7 -9 -4 -10 -3 -15 3 -11 10 6 15 -9 10 -30 -1 -5 2 -7 6 -2 10 10 86
-122 78 -135 -5 -7 -2 -8 6 -3 10 6 12 4 7 -9 -4 -9 -3 -15 2 -12 7 5 65 -89
80 -129 2 -5 9 -17 16 -25 7 -8 28 -44 47 -80 19 -36 44 -81 56 -100 12 -19
20 -41 17 -47 -2 -7 1 -12 8 -10 7 1 11 -6 11 -15 -1 -10 2 -16 6 -13 4 2 17
-13 28 -34 25 -43 27 -56 10 -45 -7 4 -8 3 -4 -5 4 -6 11 -9 16 -6 13 8 42
-53 34 -68 -4 -7 -3 -9 1 -4 8 7 74 -87 75 -106 0 -5 9 -22 21 -38 11 -16 17
-29 13 -29 -4 0 -1 -6 8 -12 9 -7 29 -38 45 -68 15 -30 34 -61 41 -68 6 -7 12
-18 12 -23 0 -5 15 -32 33 -61 19 -29 47 -78 64 -108 60 -108 85 -150 89 -150
2 0 22 12 44 26 22 15 44 23 51 18 7 -4 9 -3 5 4 -8 14 30 35 47 26 6 -4 9 -4
5 1 -11 12 60 58 75 49 6 -4 9 -3 4 1 -10 12 81 68 95 59 7 -4 8 -3 4 4 -7 11
6 17 27 13 5 -1 6 3 2 9 -9 15 11 12 24 -3 6 -8 7 -18 3 -22 -4 -5 -1 -5 6 -1
11 6 9 13 -7 30 -12 12 -21 26 -21 30 0 4 -10 20 -21 35 -13 18 -18 34 -14 43
5 7 5 10 0 6 -10 -10 -116 161 -115 187 0 22 -1 26 -8 21 -12 -7 -65 93 -58
110 3 8 1 12 -4 9 -13 -8 -62 73 -54 88 4 7 4 9 -1 5 -9 -8 -20 8 -74 105 -17
32 -29 62 -26 67 3 5 0 12 -6 16 -8 4 -9 3 -5 -4 4 -7 5 -12 2 -12 -7 0 -79
133 -79 147 0 6 -5 11 -11 10 -6 -1 -10 6 -10 16 1 10 -1 16 -4 13 -8 -9 -62
86 -55 98 3 5 2 6 -4 3 -9 -5 -44 53 -42 69 0 4 -3 10 -8 13 -18 13 -53 83
-47 94 4 7 4 9 -1 5 -11 -10 -48 51 -41 68 3 8 1 13 -5 11 -15 -3 -101 151
-93 165 4 6 3 8 -3 5 -13 -8 -56 70 -47 85 4 7 3 8 -4 4 -6 -4 -18 6 -27 24
-8 16 -12 30 -8 30 4 0 0 6 -9 13 -8 6 -25 30 -38 52 l-23 40 36 -34 c20 -19
33 -39 30 -44 -3 -6 -2 -7 4 -4 13 8 76 -57 66 -68 -5 -4 -3 -5 3 -2 14 8 127
-106 117 -118 -5 -4 -3 -5 3 -2 12 7 91 -72 86 -86 -1 -5 1 -6 6 -3 11 6 85
-67 77 -77 -3 -4 -2 -5 2 -2 4 3 35 -22 70 -57 52 -52 60 -64 50 -77 -10 -14
-10 -14 4 -4 13 10 29 -2 102 -75 48 -49 84 -92 80 -97 -4 -4 -3 -5 3 -2 6 3
28 -11 48 -32 27 -27 34 -40 24 -44 -8 -3 -4 -6 8 -6 21 -1 52 -28 53 -46 1
-5 4 -10 9 -10 16 0 32 -17 26 -27 -4 -6 -3 -8 3 -5 9 6 66 -45 64 -57 -1 -3
2 -6 7 -6 18 -2 70 -63 65 -78 -5 -10 -2 -13 6 -8 16 10 83 -52 74 -68 -3 -6
-3 -8 1 -4 12 10 54 -31 51 -50 -1 -9 0 -11 2 -4 4 11 9 10 24 -4 10 -9 16
-21 12 -27 -3 -5 -1 -7 4 -4 6 4 16 0 23 -8 7 -8 9 -15 5 -15 -4 0 -2 -7 5
-15 7 -8 16 -13 20 -10 11 7 31 -20 22 -30 -4 -5 -2 -5 4 -2 14 8 37 -17 26
-28 -4 -5 -2 -5 4 -2 14 8 97 -76 87 -88 -5 -4 -3 -5 3 -2 14 8 347 -326 337
-338 -4 -4 -3 -5 3 -2 6 3 28 -13 50 -35 21 -23 32 -36 22 -30 -11 9 -18 10
-23 2 -4 -6 -3 -10 2 -9 4 1 11 0 16 -1 4 -1 11 -3 16 -4 9 -1 101 -84 101
-91 0 -7 39 -45 45 -45 3 0 14 -9 25 -20 11 -11 18 -20 15 -20 -2 0 10 -15 28
-33 18 -19 35 -33 38 -33 4 1 8 -3 10 -9 2 -5 22 -27 46 -49 23 -21 40 -43 36
-49 -3 -5 -2 -7 4 -4 5 3 44 -29 86 -73 42 -43 77 -76 77 -74 0 6 66 -60 70
-71 3 -5 15 -19 27 -31 12 -12 20 -24 16 -28 -4 -4 0 -4 8 -1 9 3 22 -1 29
-10 7 -8 20 -15 29 -15 9 0 72 56 141 124 68 69 128 122 134 119 5 -3 6 -1 2
6 -4 6 0 14 8 17 24 9 19 27 -19 64 -18 18 -33 38 -32 44 1 5 -2 10 -8 11 -18
1 -35 16 -29 26 3 5 1 8 -4 7 -5 -2 -31 18 -57 45 -26 26 -52 47 -57 47 -5 0
-7 4 -4 8 3 5 -6 15 -19 22 -14 7 -25 20 -25 27 0 8 -4 12 -9 9 -10 -7 -33 18
-26 27 3 4 2 5 -2 2 -11 -8 -33 16 -33 37 0 10 -4 17 -9 14 -8 -6 -71 48 -71
60 0 3 -14 17 -30 31 -17 14 -27 30 -23 36 3 7 3 9 -2 5 -4 -4 -35 19 -69 51
-33 33 -74 72 -91 87 -16 15 -29 32 -27 37 1 5 -1 6 -6 3 -10 -6 -72 60 -64
69 3 3 -1 5 -9 5 -20 0 -51 38 -43 52 4 7 3 8 -4 4 -6 -4 -17 2 -24 14 -7 11
-17 20 -21 20 -12 0 -33 22 -56 61 -12 19 -21 30 -21 24 0 -5 -18 8 -40 30
-21 21 -36 43 -33 48 3 6 1 7 -4 4 -6 -4 -45 26 -87 66 -57 53 -74 76 -66 85
7 9 7 9 -2 2 -8 -7 -33 12 -84 62 -40 40 -70 76 -68 80 3 4 0 8 -5 8 -14 0
-246 228 -246 241 0 5 -3 8 -7 7 -3 -2 -18 8 -32 21 -20 19 -23 27 -14 33 9 6
7 8 -7 6 -12 -2 -19 2 -17 10 1 8 -1 11 -6 8 -12 -7 -153 137 -156 160 -2 11
-10 18 -19 16 -18 -3 -79 67 -70 81 3 6 1 7 -5 3 -12 -7 -99 71 -94 86 1 5 -2
7 -6 4 -11 -7 -44 28 -37 37 3 4 2 5 -2 2 -9 -8 -163 146 -163 163 0 7 -4 11
-9 8 -10 -6 -72 59 -75 80 -1 7 -6 17 -11 21 -4 4 -5 2 -1 -4 16 -28 -9 -10
-74 54 -59 56 -68 69 -57 82 10 14 10 14 -4 4 -13 -10 -23 -4 -65 39 -27 29
-40 45 -29 37 11 -9 28 -19 38 -22 11 -4 15 -12 11 -18 -4 -8 -3 -9 4 -5 16
10 74 -22 66 -36 -5 -8 -2 -9 9 -5 10 3 17 2 17 -4 0 -6 4 -7 10 -4 5 3 10 1
10 -4 0 -6 3 -10 8 -10 21 4 32 -2 26 -13 -5 -8 -2 -9 9 -5 9 3 20 0 24 -8 5
-7 10 -14 13 -14 16 0 39 -14 34 -22 -3 -5 3 -6 12 -2 12 4 15 3 10 -5 -4 -7
-2 -10 6 -7 8 3 24 -4 36 -15 12 -11 23 -20 24 -19 2 1 14 -1 27 -6 19 -6 21
-9 10 -17 -11 -8 -10 -8 4 -4 21 7 61 -17 49 -29 -4 -5 -2 -5 5 -1 15 8 106
-47 96 -59 -5 -4 -3 -5 4 -2 16 10 44 -3 36 -16 -3 -6 -1 -7 5 -3 6 3 39 -12
74 -34 35 -22 75 -45 91 -51 15 -6 27 -15 27 -20 0 -5 9 -9 20 -9 11 0 28 -8
38 -17 10 -10 24 -19 31 -21 29 -6 120 -65 115 -74 -3 -5 0 -9 7 -7 27 3 40
-1 34 -12 -4 -6 -1 -9 8 -7 17 4 167 -80 174 -98 2 -7 12 -10 20 -7 12 5 14 3
8 -7 -6 -9 -4 -11 4 -6 7 5 20 2 29 -6 9 -8 42 -27 72 -43 30 -15 66 -36 80
-44 14 -9 42 -25 62 -36 20 -10 35 -22 32 -27 -3 -4 3 -5 12 -1 13 5 15 3 9
-7 -5 -9 -4 -11 4 -6 6 4 24 -2 41 -14 16 -11 43 -26 60 -31 17 -6 27 -16 23
-22 -3 -5 -2 -8 3 -4 12 7 86 -38 77 -47 -4 -4 0 -4 9 -1 10 4 25 -2 37 -14
12 -12 21 -19 21 -16 0 3 14 -1 30 -10 17 -9 30 -21 30 -27 0 -6 3 -9 6 -5 4
3 19 0 35 -9 32 -16 39 -26 12 -18 -15 5 -15 4 -3 -4 8 -6 18 -8 22 -6 8 5
138 -63 138 -72 0 -3 -5 -2 -12 2 -7 4 -8 3 -4 -4 4 -6 12 -9 19 -6 7 2 29 -6
48 -19 19 -12 42 -26 52 -30 10 -4 15 -11 12 -17 -3 -5 0 -8 7 -5 7 3 42 -12
78 -32 36 -21 86 -49 112 -63 26 -13 44 -28 41 -34 -3 -5 -1 -6 5 -2 14 8 55
-18 45 -28 -4 -4 0 -4 9 -1 12 5 26 -3 44 -22 15 -15 23 -21 19 -13 -9 14 80
-32 100 -53 7 -7 5 -7 -4 -2 -10 6 -12 4 -7 -4 4 -7 13 -10 19 -8 17 6 89 -32
82 -43 -4 -6 1 -7 11 -3 11 4 15 2 11 -4 -4 -6 -1 -10 6 -9 20 2 316 -168 317
-182 0 -8 6 -12 13 -9 13 5 87 -32 87 -43 0 -4 6 -7 13 -7 22 0 147 -75 141
-84 -3 -5 2 -6 10 -3 11 4 19 -2 25 -17 5 -13 10 -19 10 -12 1 7 8 10 16 7 8
-4 12 -11 8 -17 -3 -6 -1 -7 5 -3 14 8 73 -24 66 -36 -3 -4 3 -5 12 -1 13 5
15 3 9 -8 -4 -8 -5 -11 0 -7 11 11 126 -52 118 -65 -3 -6 -1 -7 5 -3 6 4 28
-4 49 -17 21 -13 46 -26 56 -30 11 -4 15 -12 11 -18 -4 -8 -3 -9 4 -5 7 4 78
-29 160 -75 146 -81 186 -106 147 -94 -15 5 -17 4 -6 -3 8 -6 20 -8 27 -5 7 2
21 -4 32 -15 11 -11 23 -18 26 -14 3 3 6 0 6 -6 0 -7 3 -11 8 -10 17 5 52 -14
46 -25 -4 -7 -4 -9 0 -5 5 4 19 3 32 -2 18 -7 22 -6 18 5 -3 8 11 45 32 82 21
37 51 94 68 125 26 48 33 55 46 45 13 -11 13 -10 0 7 -12 16 -12 20 0 30 8 6
16 16 17 21 1 6 4 17 8 26 5 13 -13 28 -77 65 -46 26 -119 69 -163 94 -44 26
-119 69 -167 96 -47 26 -84 53 -81 58 3 5 1 6 -4 3 -15 -10 -105 42 -97 55 4
6 2 8 -4 5 -15 -10 -43 3 -35 16 3 5 1 7 -4 4 -6 -4 -80 34 -164 83 -85 49
-157 90 -161 90 -4 0 -5 8 -2 18 4 12 3 13 -3 4 -7 -10 -36 3 -123 53 -62 36
-119 73 -127 83 -8 9 -11 11 -7 3 6 -12 -70 26 -106 54 -8 6 -28 17 -43 23
-15 7 -25 17 -22 22 4 6 -1 7 -11 3 -13 -5 -15 -3 -9 7 5 9 4 11 -3 6 -6 -4
-28 4 -49 17 -21 13 -62 36 -91 51 -29 15 -51 30 -48 34 3 4 -3 8 -13 9 -32 3
-181 97 -176 112 4 10 2 11 -7 3 -10 -8 -29 -1 -73 24 -33 19 -59 38 -58 44 2
5 -5 6 -14 3 -11 -4 -14 -3 -9 5 5 8 2 10 -8 6 -9 -3 -25 4 -39 18 -12 12 -29
23 -37 23 -8 0 -14 6 -12 13 1 8 -2 11 -7 8 -14 -9 -42 5 -34 17 4 6 1 7 -6 2
-8 -4 -25 4 -43 21 -17 16 -28 23 -23 16 6 -11 3 -12 -14 -3 -11 7 -21 14 -21
17 0 3 5 2 12 -2 7 -4 8 -3 4 5 -4 6 -11 9 -16 6 -7 -4 -58 22 -200 105 -69
40 -170 97 -192 109 -15 7 -25 18 -21 24 3 5 1 7 -5 4 -15 -10 -43 3 -35 16 3
6 1 7 -5 3 -6 -4 -20 2 -31 13 -11 11 -22 17 -25 14 -3 -4 -6 -1 -6 6 0 7 -4
10 -9 7 -5 -3 -12 1 -15 10 -3 8 -10 13 -15 10 -12 -8 -121 55 -115 66 3 4 -3
5 -12 1 -11 -4 -15 -2 -11 4 4 6 -1 10 -11 9 -9 0 -16 4 -15 11 2 7 -3 10 -10
7 -7 -2 -21 3 -32 12 -11 8 -14 12 -6 8 9 -5 12 -3 7 5 -4 6 -11 9 -16 6 -12
-7 -351 185 -345 194 2 4 -2 8 -9 8 -28 0 -76 25 -69 37 3 6 3 8 -2 4 -12 -11
-87 31 -79 44 4 7 3 8 -4 4 -15 -9 -55 18 -44 29 4 5 1 5 -5 1 -16 -9 -74 24
-66 37 3 6 1 7 -5 4 -12 -8 -44 2 -37 12 2 4 -1 8 -8 8 -22 0 -146 76 -140 86
3 6 1 7 -5 3 -14 -8 -74 28 -64 39 4 5 1 5 -5 1 -11 -6 -96 35 -113 54 -3 3
-34 20 -70 39 -36 18 -69 38 -75 43 -5 6 1 5 15 -2 14 -8 26 -12 28 -11 1 2
20 0 42 -4 25 -4 38 -11 33 -17 -3 -7 -1 -8 6 -4 17 11 332 -74 324 -87 -4 -6
-1 -7 6 -3 18 12 83 -3 75 -16 -5 -7 -2 -8 5 -4 16 11 83 -3 76 -14 -3 -6 0
-7 8 -4 8 3 83 -14 168 -36 250 -67 521 -138 719 -189 25 -7 173 -46 330 -87
157 -42 301 -79 320 -84 32 -6 183 -47 435 -115 50 -13 111 -30 137 -36 26 -6
45 -15 42 -20 -3 -5 1 -6 9 -3 8 3 68 -9 133 -26 66 -17 204 -52 307 -78 104
-26 185 -51 181 -55 -5 -5 -1 -5 7 -2 9 3 29 0 45 -6 16 -7 32 -12 36 -11 4 1
74 -16 155 -38 81 -22 155 -42 163 -44 8 -2 67 -18 130 -34 539 -142 855 -224
910 -238 36 -9 72 -18 80 -21 8 -3 26 -7 40 -9 14 -2 26 -8 28 -14 2 -5 7 -8
12 -5 5 3 68 -11 142 -30 73 -19 153 -40 177 -47 34 -9 46 -9 49 0 2 7 8 10
13 7 5 -4 6 0 3 8 -5 13 55 263 73 307 3 8 8 32 10 52 5 44 26 35 -304 118
-117 29 -211 56 -209 59 2 3 -8 6 -22 7 -51 1 -282 68 -269 77 8 6 6 7 -6 3
-17 -5 -120 18 -322 73 -370 101 -607 163 -895 237 -96 24 -182 47 -190 50 -8
4 -22 8 -30 9 -27 3 -155 39 -160 44 -3 3 -11 6 -17 7 -7 1 -22 2 -34 3 -12 0
-17 5 -13 13 4 7 3 8 -4 4 -7 -4 -27 -4 -46 -1 -26 5 -33 11 -29 23 4 14 3 14
-5 3 -9 -12 -27 -10 -121 14 -60 16 -108 32 -105 37 3 4 -2 5 -11 2 -8 -4 -28
-2 -43 4 -15 6 -84 25 -154 44 -69 18 -124 36 -122 40 3 4 -1 5 -9 3 -7 -3
-40 1 -73 10 -32 9 -138 36 -234 61 -191 50 -389 103 -405 108 -5 1 -23 6 -40
10 -16 4 -37 10 -45 13 -8 3 -25 7 -36 9 -12 1 -71 16 -130 32 -60 16 -133 36
-162 43 -42 10 -49 15 -35 21 13 6 11 7 -7 3 -30 -6 -192 34 -184 46 3 5 -2 6
-11 3 -17 -7 -288 65 -293 78 -2 4 -8 6 -12 3 -15 -9 -150 27 -143 38 3 6 1 7
-5 3 -14 -8 -336 72 -340 85 -2 5 -8 7 -13 4 -5 -4 -17 -1 -26 4 -12 7 903 10
2895 11 l2912 0 0 215 0 215 -2922 1 c-3023 1 -2955 0 -2788 34 14 3 75 18
135 34 61 16 164 43 230 61 66 17 176 47 245 65 251 68 283 76 297 71 8 -3 12
-2 9 3 -3 5 12 13 34 19 29 7 40 7 40 -2 0 -7 3 -7 8 1 9 14 27 20 300 93 106
28 200 49 208 46 9 -3 12 -1 9 4 -3 6 0 10 7 11 7 0 20 2 28 4 20 6 101 26
120 30 62 15 537 141 625 166 256 72 452 122 482 123 17 1 29 4 27 7 -5 9 165
51 176 44 4 -3 10 -1 12 4 3 11 38 20 453 127 160 41 391 101 515 134 123 33
230 58 238 55 7 -2 11 -1 8 4 -6 10 121 44 134 36 4 -3 10 -1 12 4 2 7 411
120 458 126 8 1 22 5 30 8 8 4 26 8 40 9 14 2 27 6 30 9 8 10 182 49 192 43 4
-3 8 -1 8 5 0 9 79 27 106 25 8 -1 10 9 6 30 -3 17 -6 43 -6 58 -1 14 -4 24
-7 22 -3 -2 -23 63 -43 144 -21 81 -39 153 -42 161 -5 17 -35 12 -181 -26 -62
-17 -113 -26 -113 -22 0 5 -5 9 -11 9 -5 0 -8 -4 -4 -10 5 -9 -8 -13 -140 -46
-80 -20 -119 -30 -185 -48 -57 -15 -119 -32 -324 -86 -65 -17 -125 -29 -133
-26 -8 3 -12 2 -9 -3 7 -11 -351 -104 -366 -95 -6 4 -8 3 -5 -3 8 -13 -52 -26
-79 -17 -14 4 -15 3 -6 -4 10 -7 7 -11 -15 -15 -15 -4 -95 -25 -178 -47 -222
-60 -255 -66 -267 -49 -8 11 -9 11 -4 -3 6 -19 -15 -29 -64 -30 -16 -1 -27 -5
-23 -11 3 -5 0 -7 -8 -5 -8 3 -25 1 -38 -4 -13 -4 -82 -24 -155 -42 -190 -49
-347 -91 -459 -121 -54 -15 -105 -24 -113 -21 -8 3 -13 2 -10 -3 7 -11 -349
-105 -365 -96 -7 5 -10 4 -6 -2 7 -12 -239 -77 -255 -67 -6 4 -8 3 -5 -3 5 -8
-65 -30 -123 -38 -8 -1 -22 -5 -30 -8 -8 -4 -51 -15 -95 -26 -44 -11 -105 -27
-135 -35 -42 -12 -56 -13 -62 -3 -6 9 -8 8 -8 -3 0 -11 -36 -24 -133 -48 -72
-18 -188 -47 -257 -66 -69 -18 -169 -46 -224 -60 -54 -15 -108 -24 -120 -21
-17 5 -18 4 -6 -5 12 -9 8 -10 -20 -6 -21 4 -30 2 -22 -2 8 -6 -59 -28 -185
-60 -109 -29 -255 -67 -325 -86 -71 -19 -128 -32 -128 -30 0 10 62 34 72 28 7
-4 8 -3 4 4 -4 7 10 20 36 33 48 24 216 120 252 144 13 9 30 13 39 10 8 -4 18
-2 22 4 4 7 -1 9 -12 5 -17 -5 -17 -5 0 6 9 6 22 8 29 4 7 -4 8 -3 4 4 -11 19
32 36 52 20 15 -11 15 -11 5 2 -10 13 -8 18 8 28 11 7 24 10 29 7 6 -4 13 1
16 9 8 21 92 68 107 60 6 -4 9 -4 5 1 -11 12 29 37 65 42 17 1 36 8 42 14 7 7
2 7 -17 0 -16 -6 -28 -8 -28 -6 0 9 78 44 84 38 3 -4 6 -1 6 5 0 13 130 83
142 76 5 -3 7 0 6 8 -2 7 3 12 10 10 6 -1 12 3 12 9 0 6 7 8 16 5 8 -3 13 -2
10 3 -7 11 72 54 86 45 6 -4 8 -3 5 3 -6 10 116 86 139 86 7 0 11 4 9 8 -7 10
22 19 43 13 13 -5 14 -4 3 4 -16 12 3 27 21 16 6 -4 8 -3 5 3 -8 12 101 75
115 66 7 -4 8 -1 3 7 -6 10 -4 12 11 6 10 -4 15 -4 11 0 -4 4 5 15 20 25 21
14 31 15 47 7 18 -10 19 -9 9 4 -11 12 -6 18 28 36 23 12 46 19 52 15 7 -3 9
-3 5 2 -11 12 29 38 45 29 6 -4 9 -4 5 1 -10 11 121 87 135 78 5 -3 7 -2 4 4
-8 12 101 75 116 66 7 -3 9 -3 5 2 -10 10 100 77 113 70 5 -4 12 1 15 10 4 9
13 14 21 11 8 -3 11 -2 8 4 -6 10 23 28 54 33 11 2 24 7 28 12 5 4 1 5 -7 1
-8 -4 -6 0 4 8 15 12 23 13 33 4 10 -8 12 -7 8 5 -4 10 2 20 18 29 13 7 42 22
63 34 22 12 95 53 163 92 68 39 128 69 134 65 5 -3 7 -2 4 4 -4 5 6 16 21 24
15 7 44 24 65 37 21 12 43 20 49 16 6 -4 8 -3 5 3 -8 13 20 26 35 16 6 -3 8
-1 5 4 -9 14 61 56 75 47 6 -4 8 -3 5 3 -8 13 50 46 65 37 6 -4 8 -3 4 4 -6
10 30 28 47 24 5 -1 6 1 3 6 -4 8 42 37 52 33 1 -1 10 5 18 14 9 8 19 13 24
10 5 -3 10 -1 12 3 3 10 140 92 152 92 4 0 4 -5 0 -12 -4 -7 -3 -8 5 -4 6 4 9
11 6 16 -7 12 123 83 137 74 6 -4 8 -3 5 3 -7 12 106 84 134 86 10 1 16 4 14
7 -4 6 59 43 69 41 3 0 15 8 27 20 12 12 27 18 37 14 9 -3 13 -3 9 1 -10 10
31 36 45 28 6 -4 8 -3 5 3 -5 8 60 50 178 114 17 9 51 28 77 43 26 15 52 25
57 22 5 -4 13 -1 17 5 4 8 3 9 -4 5 -7 -4 -12 -5 -12 -3 0 3 21 17 48 33 26
15 49 28 51 30 2 2 -8 25 -22 52 -14 28 -23 53 -19 57 4 5 2 5 -4 2 -8 -5 -85
130 -84 148 1 3 -6 13 -15 22 -9 8 -19 28 -22 44 -7 37 -23 37 -90 -1 -57 -33
-68 -36 -57 -18 4 7 3 8 -5 4 -6 -4 -9 -12 -6 -17 6 -8 -8 -13 -20 -6 -2 1
-10 -7 -18 -17 -9 -12 -19 -16 -27 -11 -8 5 -11 4 -7 -1 3 -6 -17 -22 -44 -37
-27 -14 -47 -21 -44 -14 4 7 -2 1 -13 -12 -12 -15 -25 -22 -36 -18 -8 3 -15 2
-13 -4 3 -13 -252 -159 -268 -153 -7 3 -16 0 -21 -7 -4 -8 -3 -10 4 -5 7 4 12
5 12 2 0 -8 -144 -88 -162 -89 -9 -1 -15 -4 -13 -8 5 -7 -45 -34 -57 -31 -5 1
-8 -3 -8 -9 0 -5 -4 -8 -9 -5 -5 3 -12 -1 -15 -10 -3 -8 -10 -13 -15 -10 -5 4
-11 2 -13 -2 -1 -5 -39 -29 -83 -54 -44 -25 -133 -75 -198 -112 -64 -37 -122
-64 -127 -61 -6 4 -13 -1 -16 -9 -8 -21 -93 -68 -108 -59 -6 3 -8 3 -4 -2 4
-4 0 -14 -10 -21 -13 -9 -20 -10 -31 -1 -11 10 -13 9 -9 -3 3 -10 -16 -27 -60
-52 -70 -41 -77 -44 -66 -26 5 7 3 8 -5 4 -7 -5 -10 -11 -7 -14 7 -6 -173
-112 -191 -112 -7 0 -13 -4 -13 -8 0 -13 -70 -43 -82 -36 -6 4 -8 2 -4 -4 8
-13 -82 -65 -97 -55 -5 3 -7 1 -3 -5 7 -11 -30 -28 -53 -23 -7 1 -10 -2 -7 -8
8 -12 -171 -114 -186 -105 -7 4 -8 3 -4 -4 8 -14 -30 -36 -46 -26 -7 4 -8 3
-4 -4 7 -11 -6 -17 -27 -13 -5 1 -6 -3 -3 -8 7 -11 -22 -23 -36 -14 -6 3 -8 1
-5 -4 4 -6 -44 -39 -114 -78 -98 -55 -123 -65 -131 -54 -8 11 -9 10 -4 -4 4
-11 -1 -20 -12 -24 -9 -4 -50 -26 -90 -50 -40 -24 -79 -40 -85 -37 -7 4 -9 3
-4 -1 8 -10 -83 -66 -95 -59 -4 3 -8 1 -8 -5 0 -8 -66 -49 -202 -124 -27 -15
-48 -24 -48 -22 0 3 -9 -4 -21 -16 -11 -11 -27 -18 -35 -15 -10 4 -12 2 -8 -6
5 -8 2 -9 -10 -5 -10 4 -15 3 -11 -3 3 -5 -14 -19 -37 -31 -24 -12 -109 -59
-190 -106 -85 -49 -152 -81 -159 -77 -8 4 -9 3 -5 -4 4 -7 -7 -19 -31 -29 -21
-10 -41 -22 -44 -27 -4 -5 -13 -5 -20 -1 -8 5 -11 4 -6 0 8 -10 -83 -66 -95
-59 -4 3 -8 1 -8 -5 0 -15 -108 -73 -122 -65 -7 4 -10 4 -6 -1 9 -10 -4 -20
-95 -69 -37 -20 -84 -46 -105 -57 l-37 -21 49 50 c27 28 54 49 60 48 6 -2 7
-1 3 2 -5 2 62 75 149 162 87 88 162 156 168 153 5 -3 6 -2 3 4 -8 13 127 146
138 136 4 -4 5 -3 2 3 -8 14 136 157 148 147 4 -4 5 -3 2 3 -8 14 146 167 158
157 4 -4 5 -3 2 3 -8 14 66 87 78 77 4 -5 5 -3 2 3 -8 14 36 57 47 47 4 -5 6
-1 4 7 -2 8 3 14 10 12 8 -1 11 1 8 6 -7 11 45 58 59 54 5 -2 7 0 3 4 -11 10
12 35 25 27 5 -3 7 -2 4 4 -8 13 87 106 98 96 4 -5 5 -3 2 3 -8 14 116 137
128 127 4 -4 5 -3 2 3 -3 6 12 28 33 49 22 22 40 35 40 31 0 -5 7 -3 15 4 8 7
13 16 10 20 -4 7 47 61 62 63 4 1 7 5 6 8 -2 7 59 68 70 69 4 0 6 2 5 4 -5 8
45 56 57 56 7 0 20 10 31 23 l19 22 -25 -20 c-16 -12 -12 -6 9 17 19 21 38 35
42 32 4 -2 11 1 15 7 5 8 3 9 -7 4 -8 -5 -3 4 10 18 27 30 41 37 20 10 -13
-16 -12 -17 3 -4 10 7 16 17 13 21 -7 11 20 31 30 22 5 -4 5 -2 2 4 -8 14 17
37 27 26 4 -4 6 0 4 8 -2 8 3 14 10 12 8 -1 11 1 8 6 -5 9 47 65 58 63 3 -1 6
2 6 7 0 4 33 39 72 79 60 61 74 70 87 60 14 -10 14 -10 4 4 -10 13 -6 22 25
52 21 21 42 34 47 30 4 -5 5 -3 2 3 -3 6 7 23 22 38 16 15 31 24 33 19 3 -4 4
-3 2 3 -3 16 90 106 101 97 4 -5 5 -3 2 3 -7 13 116 138 126 128 4 -4 7 -1 7
8 0 8 9 23 21 34 28 25 44 55 27 52 -6 -2 -12 2 -13 9 0 7 -6 18 -14 25 -10
10 -12 10 -7 1 11 -21 -5 -15 -25 8 -10 12 -16 25 -14 29 3 4 -3 7 -13 6 -10
0 -16 6 -16 16 1 10 -3 15 -8 12 -12 -8 -129 107 -121 119 3 6 2 7 -4 4 -12
-8 -56 37 -46 46 3 4 -5 6 -20 5 -14 -1 -24 -5 -22 -9z m-2455 -2457 c0 -11
-22 -32 -32 -32 -5 0 -4 9 2 20 11 20 30 28 30 12z"/>
<path d="M3840 7611 c0 -6 4 -13 10 -16 6 -3 7 1 4 9 -7 18 -14 21 -14 7z"/>
<path d="M5785 7300 c-3 -5 -1 -10 4 -10 6 0 11 5 11 10 0 6 -2 10 -4 10 -3 0
-8 -4 -11 -10z"/>
<path d="M5050 6900 c0 -5 5 -10 11 -10 5 0 7 5 4 10 -3 6 -8 10 -11 10 -2 0
-4 -4 -4 -10z"/>
<path d="M5710 6760 c0 -5 5 -10 11 -10 5 0 7 5 4 10 -3 6 -8 10 -11 10 -2 0
-4 -4 -4 -10z"/>
<path d="M4395 6520 c-3 -6 1 -7 9 -4 18 7 21 14 7 14 -6 0 -13 -4 -16 -10z"/>
<path d="M2800 6135 c-7 -9 -8 -15 -2 -15 5 0 12 7 16 15 3 8 4 15 2 15 -2 0
-9 -7 -16 -15z"/>
<path d="M2725 6060 c-3 -5 -1 -10 4 -10 6 0 11 5 11 10 0 6 -2 10 -4 10 -3 0
-8 -4 -11 -10z"/>
<path d="M3945 5740 c3 -5 8 -10 11 -10 2 0 4 5 4 10 0 6 -5 10 -11 10 -5 0
-7 -4 -4 -10z"/>
<path d="M3817 5669 c7 -7 15 -10 18 -7 3 3 -2 9 -12 12 -14 6 -15 5 -6 -5z"/>
<path d="M2675 5540 c-3 -6 1 -7 9 -4 18 7 21 14 7 14 -6 0 -13 -4 -16 -10z"/>
<path d="M1376 5368 c3 -5 10 -6 15 -3 13 9 11 12 -6 12 -8 0 -12 -4 -9 -9z"/>
<path d="M6688 5353 c7 -3 16 -2 19 1 4 3 -2 6 -13 5 -11 0 -14 -3 -6 -6z"/>
<path d="M2206 5278 c3 -5 10 -6 15 -3 13 9 11 12 -6 12 -8 0 -12 -4 -9 -9z"/>
<path d="M1954 5134 c-18 -14 -18 -14 6 -3 31 14 36 19 24 19 -6 0 -19 -7 -30
-16z"/>
<path d="M1940 4589 c0 -5 5 -7 10 -4 6 3 10 8 10 11 0 2 -4 4 -10 4 -5 0 -10
-5 -10 -11z"/>
<path d="M1775 2759 c-4 -6 -5 -12 -2 -15 2 -3 7 2 10 11 7 17 1 20 -8 4z"/>
<path d="M3120 2526 c0 -2 7 -7 16 -10 8 -3 12 -2 9 4 -6 10 -25 14 -25 6z"/>
<path d="M2270 2249 c0 -5 5 -7 10 -4 6 3 10 8 10 11 0 2 -4 4 -10 4 -5 0 -10
-5 -10 -11z"/>
<path d="M4050 2006 c0 -2 8 -10 18 -17 15 -13 16 -12 3 4 -13 16 -21 21 -21
13z"/>
<path d="M4320 1846 c0 -2 7 -7 16 -10 8 -3 12 -2 9 4 -6 10 -25 14 -25 6z"/>
</g>
</svg>
