<svg width="1023" height="1022" xmlns="http://www.w3.org/2000/svg"><path fill="none" d="M-1-1h582v402H-1z"/><path fill="#fecd02" d="M232 386c.815-4.758 3.767-8.823 6.15-13 4.371-7.656 8.869-15.255 13.081-23 17.608-32.381 36.801-63.972 55.05-96 5.325-9.346 10.836-18.575 16.025-28 2.539-4.613 5.685-8.768 6.694-14-9.055-4.232-17.389-10.087-26-15.139-2.702-1.585-7.448-5.523-10.787-4.44-3.544 1.15-5.8 7.599-7.494 10.579-5.882 10.345-11.703 20.739-17.73 31-16.354 27.842-32.309 55.927-48.27 84-7.885 13.87-18.258 27.994-23.719 43-2.282-7.721-1-16.975-1-25h-40v65c0 9.445 2.156 22.016-.966 31-2.394 6.888-6.528 13.483-9.787 20l-18.494 37c-3.16 6.321-10.676 15.905-10.83 23-.16 7.391 7.579 17.499 10.83 24l18.494 37c3.259 6.517 7.393 13.111 9.787 20 3.122 8.984.966 21.555.966 31v65h40c0-8.32 1.366-17.997-1-26 4.627 4.577 7.23 11.358 10.424 17l20 35c22.525 39.78 44.711 80.007 68.576 119 12.731-5.951 25.279-14.244 37-22-1.992-6.773-6.364-12.893-9.85-19l-18.869-33C277.34 719.65 252.633 680.072 231 639l182 182 53 53c8.01 8.01 16.675 20.185 27 25 6.017-8.105 14.125-15.237 21.439-22.2 2.269-2.16 7.154-5.086 6.215-8.804-.697-2.764-3.742-5.069-5.655-6.996L502 848l-51-51-186-186c12.502 5.387 24.113 13.505 36 20.14 24.765 13.823 49.368 27.95 74 42.01 66.932 38.205 134.351 75.593 201 114.274 28.496 16.539 57.135 32.992 86 48.882 7.723 4.251 15.35 8.73 23 13.115 5.129 2.941 10.118 6.518 16 7.579 5.598-11.99 12.832-23.29 19-35-94.356-55.646-189.861-109.545-285-163.85-29.713-16.96-59.463-33.909-89-51.162-17.235-10.066-34.671-22.09-53-29.988 5.46.132 10.721 2.289 16 3.626 12.03 3.047 23.962 6.487 36 9.501 40.119 10.042 80.026 21.008 120 31.587 81.608 21.599 163.354 42.704 245 64.17 45.808 12.044 91.613 26.541 138 36.116 1.917-14.227 8.081-27.747 10-42-119.351-33.87-240.032-63.55-360-95.154-45.005-11.856-89.851-24.418-135-35.719-18.119-4.536-36.481-11.633-55-14.127 6.584-1.946 14.166-1 21-1h579v-43H307c7.016-3.019 14.661-4.385 22-6.424 18.262-5.075 36.669-9.641 55-14.46 48.683-12.8 97.205-26.235 146-38.591 75.186-19.038 149.993-39.688 225-59.409 34.209-8.995 68.357-19.965 103-27.116-1.914-14.215-7.269-27.925-10-42-16.156 2.175-32.251 7.975-48 12.116l-95 25c-89.983 23.659-180.022 47.111-270 70.768-33.659 8.85-67.257 17.946-101 26.49-13.675 3.463-27.175 7.772-41 10.626 91.569-53.497 183.986-105.675 276-158.427 34.699-19.894 69.247-40.052 104-59.854 15.44-8.797 30.684-19.688 47-26.719-5.685-12.177-14.406-23.38-19-36-14.908 4.718-29.441 15.805-43 23.579-26.938 15.443-53.785 31.167-81 46.115-77.902 42.789-154.895 87.528-232 131.733-27.232 15.613-54.227 31.944-82 46.573 40.974-40.974 81.38-82.646 123.039-122.914 25.355-24.509 51.541-49.025 75.497-74.912C475.999 201.545 491.931 187.069 507 172c3.376-3.376 14.999-11.605 13.654-17-.78-3.131-4.484-5.825-6.654-8-4.993-5.003-9.95-10.05-15-14.995-2.378-2.329-5.318-6.005-9-4.253-3.085 1.467-5.626 4.875-8 7.248l-14 14-50 50c-43.036 43.036-86.221 85.916-129.2 129.001-12.118 12.148-24.232 24.339-36.545 36.268-6.727 6.517-15.92 13.38-20.255 21.731z"/><path fill="#0101ff" d="M264 610l1 1-1-1z"/></svg>