<svg version="1" xmlns="http://www.w3.org/2000/svg" width="800" height="732" viewBox="0 0 600 549"><path d="M293.3 2c-7.1 2.9-15 16-19.9 33-2.7 9.4-2.8 9.9-3.4 50-.6 32.9-1 41.6-2.3 46.5-.9 3.3-1.7 8-1.7 10.5v4.5L240.8 169c-13.9 12.4-25.5 22.6-25.9 22.8-.3.1-.9-2.2-1.2-5.2-.3-3-1.1-6.8-1.9-8.3-1.3-2.8-1.4-2.8-11.3-2.8h-10l-1.5 3c-1.1 2.3-1.5 7.1-1.7 20.7l-.1 17.7-14.3 12.8c-35.4 31.8-32.8 29.6-33.3 27.1-.3-1.3-.7-4.3-1.1-6.7-1.1-8.1-1.3-8.2-12.8-7.9l-10.2.3-1.5 3c-1.2 2.3-1.5 7-1.6 20.7l-.1 17.7-48.9 43.8C9.5 376 2.5 382.5 1 386.5c-1.4 3.7-1.3 24.5.1 24.5.6 0 7-3.5 14.3-7.9 12.7-7.6 75.3-43.1 76-43.1.2 0 .6 1.3 1 3 .6 3.5 2.6 4 2.6.7 0-5.7.9-6.5 19.9-17.2 10.3-5.8 19.1-10.5 19.4-10.5.4 0 .7.9.7 1.9 0 1.1.4 2.2.9 2.5 1.1.7 2.1-1.7 2.1-4.7 0-1.7 2.1-3.4 9.8-7.7 5.3-3 10-5.6 10.3-5.8.4-.2 1 .7 1.4 2 .6 2.2.7 2.1 1.7-.9.9-2.8 2.9-4.3 12.4-9.8 6.2-3.6 11.8-6.5 12.4-6.5.5 0 1 .7 1 1.5 0 2.6 1.7 1.6 2.3-1.4.5-2.4 2.2-3.8 10.7-8.5 5.5-3.1 10.2-5.6 10.4-5.6.3 0 .8 2 1.2 4.5 1 7 3.4 5.3 3.4-2.5 0-2.7.5-4.2 1.8-4.8 2.3-1.3 47.4-15.3 47.8-14.9.2.1.5 8.6.8 18.7.4 12.5 1.1 20.6 2.2 25 1.4 5.4 1.8 14.2 2.4 51 .6 38 1 46.3 2.8 56.9l2.1 12.5-2.6 3c-2.9 3.5-29.4 32.9-63.5 70.4l-4.8 5.3v15c0 11.8.3 14.9 1.3 14.3.6-.5 18.9-14.2 40.6-30.7 21.6-16.4 39.4-29.7 39.5-29.5.2.2 1.5 4.5 3 9.7 3.7 12.5 8.6 25.1 9.7 25.1.5 0 .9 2.6 1 5.7 0 4.2.3 5.2.9 3.8.5-1.1.9-3.7.9-5.7.1-2 .6-3.8 1.2-4 .5-.2 3.6-8.1 6.8-17.5l5.8-17.2 40.1 30.4c22.1 16.8 40.5 30.5 40.7 30.5.3 0 .5-6.6.5-14.8v-14.7l-27.3-30.1c-14.9-16.6-31-34.2-35.5-39.2l-8.4-9.2 2.3-14.7c1.9-12.9 2.3-20.3 2.9-58.3.5-32 1-44.4 1.9-47 .9-2.3 1.5-10.8 1.8-24.3.3-11.4.8-20.7 1.2-20.7 1.1 0 48.3 14.9 48.8 15.4.3.2.8 2.8 1.2 5.6.7 5.9 2.3 6.7 3.2 1.5.3-1.9.8-3.7 1.1-4 .3-.3 5 2 10.5 5.1 8.7 4.9 10.2 6.1 10.8 8.8.6 2.9.7 3 2 1.2 1.3-1.7 2-1.5 13.4 4.9 9.9 5.4 12.1 7.1 12.1 8.9 0 3.2 1.2 4 2.5 1.7 1-1.9 1.5-1.7 11 3.7 8.8 5.1 10 6.1 10.3 8.7.5 4.2 2 5.3 2.8 2.1.3-1.5 1-2.6 1.4-2.4.5.2 9.1 5 19.3 10.7l18.5 10.4.7 4.4c.7 5 1.9 5.5 3.1 1.3l.9-3 36 20.3c19.8 11.2 40.1 22.9 45.2 26 5 3 9.4 5.3 9.7 5 1.2-1.3.6-21.4-.8-24.6-1.7-3.9-12.9-14.8-44.1-42.7-13.2-11.8-32.1-28.7-42-37.6-9.9-8.8-19.6-17.5-21.5-19.1l-3.4-3.1-.1-17.3c0-14.1-.3-18.1-1.7-21.2l-1.7-3.7h-10c-11.6 0-11.5-.1-13.4 10.6l-1.2 6.4-23.5-21.1-23.5-21 .4-13.8c.3-14.5-.9-24-3.5-26.6-1.2-1.1-3.9-1.5-10.4-1.5-8.3 0-9.1.2-10.5 2.4-.9 1.3-2 5.1-2.6 8.5l-1.1 6.1-3.7-3.2c-2-1.8-13.3-12-25.2-22.6L334.3 147l-.7-7c-.4-3.8-1.2-8.4-1.9-10.2-.7-2.1-1.3-17.5-1.7-43.3-.6-39-.7-40.2-3.2-49.6-4.7-17.4-12.3-30.5-19.9-34.5C303.8.9 296.7.6 293.3 2z" fill="#fff"/></svg>