<?xml version="1.0" standalone="no"?>
<!DOCTYPE svg PUBLIC "-//W3C//DTD SVG 20010904//EN"
 "http://www.w3.org/TR/2001/REC-SVG-20010904/DTD/svg10.dtd">
<svg version="1.0" xmlns="http://www.w3.org/2000/svg"
 width="600.000000pt" height="549.000000pt" viewBox="0 0 600.000000 549.000000"
 preserveAspectRatio="xMidYMid meet">
<metadata>
Created by potrace 1.15, written by Peter Selinger 2001-2017
</metadata>
<g transform="translate(0.000000,549.000000) scale(0.100000,-0.100000)"
fill="#ffffff" stroke="none">
<path d="M2933 5470 c-71 -29 -150 -160 -199 -330 -27 -94 -28 -99 -34 -500
-6 -329 -10 -416 -23 -465 -9 -33 -17 -80 -17 -105 l0 -45 -252 -225 c-139
-124 -255 -226 -259 -228 -3 -1 -9 22 -12 52 -3 30 -11 68 -19 83 -13 28 -14
28 -113 28 l-100 0 -15 -30 c-11 -23 -15 -71 -17 -207 l-1 -177 -143 -128
c-354 -318 -328 -296 -333 -271 -3 13 -7 43 -11 67 -11 81 -13 82 -128 79
l-102 -3 -15 -30 c-12 -23 -15 -70 -16 -207 l-1 -177 -489 -438 c-539 -483
-609 -548 -624 -588 -14 -37 -13 -245 1 -245 6 0 70 35 143 79 127 76 753 431
760 431 2 0 6 -13 10 -30 6 -35 26 -40 26 -7 0 57 9 65 199 172 103 58 191
105 194 105 4 0 7 -9 7 -19 0 -11 4 -22 9 -25 11 -7 21 17 21 47 0 17 21 34
98 77 53 30 100 56 103 58 4 2 10 -7 14 -20 6 -22 7 -21 17 9 9 28 29 43 124
98 62 36 118 65 124 65 5 0 10 -7 10 -15 0 -26 17 -16 23 14 5 24 22 38 107
85 55 31 102 56 104 56 3 0 8 -20 12 -45 10 -70 34 -53 34 25 0 27 5 42 18 48
23 13 474 153 478 149 2 -1 5 -86 8 -187 4 -125 11 -206 22 -250 14 -54 18
-142 24 -510 6 -380 10 -463 28 -569 l21 -125 -26 -30 c-29 -35 -294 -329
-635 -704 l-48 -53 0 -150 c0 -118 3 -149 13 -143 6 5 189 142 406 307 216
164 394 297 395 295 2 -2 15 -45 30 -97 37 -125 86 -251 97 -251 5 0 9 -26 10
-57 0 -42 3 -52 9 -38 5 11 9 37 9 57 1 20 6 38 12 40 5 2 36 81 68 175 l58
172 401 -304 c221 -168 405 -305 407 -305 3 0 5 66 5 148 l0 147 -273 301
c-149 166 -310 342 -355 392 l-84 92 23 147 c19 129 23 203 29 583 5 320 10
444 19 470 9 23 15 108 18 243 3 114 8 207 12 207 11 0 483 -149 488 -154 3
-2 8 -28 12 -56 7 -59 23 -67 32 -15 3 19 8 37 11 40 3 3 50 -20 105 -51 87
-49 102 -61 108 -88 6 -29 7 -30 20 -12 13 17 20 15 134 -49 99 -54 121 -71
121 -89 0 -32 12 -40 25 -17 10 19 15 17 110 -37 88 -51 100 -61 103 -87 5
-42 20 -53 28 -21 3 15 10 26 14 24 5 -2 91 -50 193 -107 l185 -104 7 -44 c7
-50 19 -55 31 -13 l9 30 360 -203 c198 -112 401 -229 452 -260 50 -30 94 -53
97 -50 12 13 6 214 -8 246 -17 39 -129 148 -441 427 -132 118 -321 287 -420
376 -99 88 -196 175 -215 191 l-34 31 -1 173 c0 141 -3 181 -17 212 l-17 37
-100 0 c-116 0 -115 1 -134 -106 l-12 -64 -235 211 -235 210 4 138 c3 145 -9
240 -35 266 -12 11 -39 15 -104 15 -83 0 -91 -2 -105 -24 -9 -13 -20 -51 -26
-85 l-11 -61 -37 32 c-20 18 -133 120 -252 226 l-216 192 -7 70 c-4 38 -12 84
-19 102 -7 21 -13 175 -17 433 -6 390 -7 402 -32 496 -47 174 -123 305 -199
345 -31 15 -102 18 -136 4z"/>
</g>
</svg>
